# File created by Blade
# Date/Time:  Tue Apr 07 20:53:11 2015
# Frame Rate: 120.000 fps
#------------------------------------------------------
:FULLY-SPECIFIED
:DEGREES
621
root -18.661188 31.693877 4.670689 21.630221 -60.673883 -88.826111
Spine -64.395927 -20.331213 -6.473091
Head -93.200189 -15.199456 7.431449
LeftShoulder -15.668336 -4.092834 37.648196
LeftArm 181.226307 -66.366533 -165.174759
LeftForeArm -29.417270 0.000000 38.451107
LeftHand 18.860097 -0.000000 74.561608
LeftHandThumb1 -26.253704 0.000000 33.147579
RightShoulder -19.993665 18.391242 -51.452026
RightArm -18.864166 52.071761 -45.606701
RightForeArm 50.237352 -0.000000 13.888080
RightHand 20.796977 0.000000 -65.721559
RightHandThumb1 -24.326973 -0.000000 -32.862282
LeftUpLeg 32.634412 -14.608102 22.958829
LeftLeg 53.032469 -0.000000 -0.000000
LeftFoot -21.632773 13.441308 -10.303020
LeftToeBase -17.923670 -0.000000 0.000000
RightUpLeg -73.642956 -11.776062 -6.007318
RightLeg 31.583064 -0.000000 -0.000000
RightFoot -9.202648 -21.422675 8.240859
RightToeBase 9.606437 -0.000000 -0.000000
622
root -18.380529 31.685208 4.646903 21.904952 -60.753011 -89.721885
Spine -64.617100 -20.432252 -6.472478
Head -93.166852 -15.143247 7.489254
LeftShoulder -15.755934 -4.388994 37.550081
LeftArm 179.637670 -65.719699 -161.259036
LeftForeArm -27.885096 -0.000000 35.812596
LeftHand 17.898698 -0.000000 80.237521
LeftHandThumb1 -26.253704 0.000000 33.147579
RightShoulder -20.267307 18.307509 -50.492443
RightArm -15.282507 55.012477 -45.423114
RightForeArm 48.429235 -0.000000 9.588245
RightHand 21.685741 -0.000000 -65.777416
RightHandThumb1 -24.326973 -0.000000 -32.862282
LeftUpLeg 32.340560 -14.163653 23.280666
LeftLeg 53.356680 -0.000000 -0.000000
LeftFoot -20.430987 14.368791 -9.773765
LeftToeBase -18.216515 -0.000000 0.000000
RightUpLeg -74.953614 -12.524385 -6.168366
RightLeg 31.560577 -0.000000 -0.000000
RightFoot -9.526258 -21.124360 8.273752
RightToeBase 9.387859 -0.000000 -0.000000
623
root -18.092058 31.679452 4.628284 22.249464 -60.886962 -90.700761
Spine -64.872448 -20.369523 -6.347354
Head -93.164210 -15.228627 7.621973
LeftShoulder -15.606344 -4.517682 37.319438
LeftArm 178.422449 -64.234590 -157.866019
LeftForeArm -25.749049 -0.000000 33.259742
LeftHand 18.495266 -0.000000 85.534065
LeftHandThumb1 -26.253704 0.000000 33.147579
RightShoulder -20.444574 18.442084 -49.547782
RightArm -11.519885 58.558147 -45.399560
RightForeArm 46.634558 -0.000000 4.851202
RightHand 23.569861 0.000000 -65.267674
RightHandThumb1 -24.326973 -0.000000 -32.862282
LeftUpLeg 32.074999 -13.623610 23.588611
LeftLeg 53.651375 -0.000000 -0.000000
LeftFoot -19.101196 15.267976 -9.328888
LeftToeBase -18.984465 -0.000000 0.000000
RightUpLeg -76.240633 -13.222773 -6.281708
RightLeg 31.510179 -0.000000 -0.000000
RightFoot -9.750275 -20.782489 8.012530
RightToeBase 10.134635 -0.000000 -0.000000
624
root -17.801546 31.685344 4.605180 22.517168 -61.076402 -91.697713
Spine -64.998293 -20.255169 -6.297143
Head -93.292483 -15.339270 7.806794
LeftShoulder -15.336236 -4.597390 37.188933
LeftArm 177.094611 -61.822586 -154.908349
LeftForeArm -23.583760 -0.000000 31.708371
LeftHand 19.322025 -0.000000 89.068209
LeftHandThumb1 -26.253704 0.000000 33.147579
RightShoulder -20.080652 18.454483 -48.919849
RightArm -9.683684 60.999553 -45.947232
RightForeArm 44.900145 -0.000000 1.474733
RightHand 25.159130 -0.000000 -64.373887
RightHandThumb1 -24.326973 -0.000000 -32.862282
LeftUpLeg 31.895449 -12.990316 23.901221
LeftLeg 53.878386 -0.000000 -0.000000
LeftFoot -17.440391 16.410013 -8.682678
LeftToeBase -20.271025 -0.000000 0.000000
RightUpLeg -77.432884 -13.851034 -6.419392
RightLeg 31.500432 -0.000000 -0.000000
RightFoot -9.914449 -20.543148 7.761378
RightToeBase 10.295972 -0.000000 -0.000000
625
root -17.500697 31.698588 4.589138 22.779371 -61.237240 -92.690952
Spine -65.042208 -20.097625 -6.208663
Head -93.372108 -15.425778 7.804114
LeftShoulder -15.491113 -5.385220 37.080387
LeftArm 173.983154 -58.833765 -150.817839
LeftForeArm -19.682094 0.000000 31.308164
LeftHand 18.507003 -0.000000 91.426313
LeftHandThumb1 -26.253704 0.000000 33.147579
RightShoulder -19.777329 18.642113 -48.686426
RightArm -8.637975 62.980765 -46.401973
RightForeArm 43.416262 -0.000000 -0.564723
RightHand 25.991428 -0.000000 -64.391981
RightHandThumb1 -24.326973 -0.000000 -32.862282
LeftUpLeg 31.709237 -12.398656 24.175080
LeftLeg 54.067000 -0.000000 -0.000000
LeftFoot -15.547208 17.544114 -7.947813
LeftToeBase -21.798165 -0.000000 0.000000
RightUpLeg -78.581887 -14.557097 -6.470557
RightLeg 31.461811 -0.000000 -0.000000
RightFoot -9.936637 -20.426190 7.553944
RightToeBase 10.379342 -0.000000 -0.000000
626
root -17.187798 31.718714 4.578617 22.899562 -61.386162 -93.554828
Spine -64.969950 -19.961769 -6.102394
Head -93.727155 -15.384725 8.027614
LeftShoulder -15.353056 -5.758193 36.673677
LeftArm 172.962872 -55.876523 -148.717952
LeftForeArm -17.086912 -0.000000 31.224135
LeftHand 18.672394 0.000000 92.066140
LeftHandThumb1 -26.253704 0.000000 33.147579
RightShoulder -19.702023 19.058763 -48.586280
RightArm -7.647896 65.171253 -46.663677
RightForeArm 41.358882 -0.000000 -2.311497
RightHand 27.034378 0.000000 -64.218304
RightHandThumb1 -24.326973 -0.000000 -32.862282
LeftUpLeg 31.538429 -11.958612 24.281967
LeftLeg 54.232841 -0.000000 -0.000000
LeftFoot -13.519782 18.425888 -7.476036
LeftToeBase -23.389042 -0.000000 0.000000
RightUpLeg -79.647171 -15.323935 -6.536684
RightLeg 31.362372 -0.000000 -0.000000
RightFoot -9.729010 -20.401859 7.397734
RightToeBase 10.044576 -0.000000 -0.000000
627
root -16.865446 31.748175 4.571562 23.025009 -61.555352 -94.392401
Spine -64.894755 -19.792800 -5.951499
Head -94.097879 -15.289472 8.241962
LeftShoulder -14.892406 -6.165447 36.079288
LeftArm 173.261718 -53.826086 -147.640201
LeftForeArm -15.158228 -0.000000 30.885134
LeftHand 19.171165 -0.000000 92.418241
LeftHandThumb1 -26.253704 0.000000 33.147579
RightShoulder -19.725359 19.558127 -48.500788
RightArm -6.645207 67.215229 -46.834886
RightForeArm 39.230853 0.000000 -3.934362
RightHand 27.912106 0.000000 -64.402582
RightHandThumb1 -24.326973 -0.000000 -32.862282
LeftUpLeg 31.296701 -11.451156 24.360031
LeftLeg 54.349037 -0.000000 -0.000000
LeftFoot -10.949533 19.592441 -6.388541
LeftToeBase -25.437813 -0.000000 0.000000
RightUpLeg -80.712407 -16.117526 -6.539559
RightLeg 31.218088 -0.000000 -0.000000
RightFoot -9.907460 -20.373802 8.063067
RightToeBase 11.478994 -0.000000 -0.000000
628
root -16.535875 31.793365 4.571968 23.117645 -61.753147 -95.160755
Spine -64.889653 -19.642970 -5.697783
Head -94.437124 -15.028722 8.200117
LeftShoulder -14.301126 -7.045849 35.553549
LeftArm 173.944194 -52.697014 -146.724745
LeftForeArm -12.834633 -0.000000 30.067383
LeftHand 18.939258 0.000000 93.107654
LeftHandThumb1 -26.253704 0.000000 33.147579
RightShoulder -19.934673 20.124218 -48.378939
RightArm -4.737856 69.282804 -46.136418
RightForeArm 36.890965 -0.000000 -5.827592
RightHand 29.171461 -0.000000 -64.868475
RightHandThumb1 -24.326973 -0.000000 -32.862282
LeftUpLeg 31.038433 -10.919183 24.372470
LeftLeg 54.344740 -0.000000 -0.000000
LeftFoot -7.996697 20.695808 -5.032989
LeftToeBase -27.448361 -0.000000 0.000000
RightUpLeg -81.764042 -16.945102 -6.461977
RightLeg 30.996865 -0.000000 -0.000000
RightFoot -9.523441 -20.499121 8.115252
RightToeBase 11.886100 -0.000000 -0.000000
629
root -16.186921 31.851838 4.573872 23.306383 -61.960361 -95.939508
Spine -64.957629 -19.525906 -5.336819
Head -94.659655 -14.728074 8.302350
LeftShoulder -14.064865 -8.007898 35.038460
LeftArm 174.297182 -52.074712 -145.490083
LeftForeArm -11.021569 0.000000 28.972935
LeftHand 18.850693 -0.000000 93.485791
LeftHandThumb1 -26.253704 0.000000 33.147579
RightShoulder -20.372445 20.475437 -48.071875
RightArm -2.313188 71.106717 -44.888793
RightForeArm 35.007435 0.000000 -7.642782
RightHand 30.035615 0.000000 -65.577447
RightHandThumb1 -24.326973 -0.000000 -32.862282
LeftUpLeg 30.656151 -10.414716 24.361544
LeftLeg 54.290245 -0.000000 -0.000000
LeftFoot -4.726669 21.493954 -3.819570
LeftToeBase -29.769888 -0.000000 0.000000
RightUpLeg -82.808636 -17.781142 -6.275114
RightLeg 30.604782 -0.000000 -0.000000
RightFoot -8.949424 -20.584123 8.135092
RightToeBase 12.262320 -0.000000 -0.000000
630
root -15.825081 31.926856 4.575592 23.500601 -62.211659 -96.606700
Spine -65.153808 -19.444869 -4.932913
Head -94.828971 -14.398551 8.429607
LeftShoulder -14.296186 -9.369963 34.959208
LeftArm 173.653797 -51.876164 -143.850585
LeftForeArm -9.254851 -0.000000 27.730389
LeftHand 18.871104 -0.000000 94.514769
LeftHandThumb1 -26.253704 0.000000 33.147579
RightShoulder -20.694003 20.614433 -47.703439
RightArm -0.200439 71.632288 -43.741238
RightForeArm 34.614399 -0.000000 -9.231301
RightHand 30.286313 0.000000 -65.968094
RightHandThumb1 -24.326973 -0.000000 -32.862282
LeftUpLeg 30.130931 -9.844572 24.309825
LeftLeg 54.090857 -0.000000 -0.000000
LeftFoot -0.850074 22.225826 -2.357814
LeftToeBase -32.365663 -0.000000 0.000000
RightUpLeg -83.843340 -18.576425 -6.129171
RightLeg 30.069890 -0.000000 -0.000000
RightFoot -7.926643 -20.678798 7.692884
RightToeBase 12.330700 -0.000000 -0.000000
631
root -15.457422 32.015719 4.580442 23.463415 -62.491525 -96.933365
Spine -65.478657 -19.467524 -4.577142
Head -94.836587 -14.121808 8.504786
LeftShoulder -14.477011 -9.928921 34.854480
LeftArm 174.232165 -52.028350 -143.160571
LeftForeArm -8.297123 -0.000000 25.934187
LeftHand 18.773501 -0.000000 95.305746
LeftHandThumb1 -26.253704 0.000000 33.147579
RightShoulder -20.959016 20.805832 -47.316422
RightArm 2.107669 71.309763 -42.287049
RightForeArm 35.079803 0.000000 -10.501319
RightHand 30.059395 -0.000000 -66.259297
RightHandThumb1 -24.326973 -0.000000 -32.862282
LeftUpLeg 29.420167 -9.281843 24.134886
LeftLeg 53.869614 -0.000000 -0.000000
LeftFoot 3.614732 22.794035 -0.487912
LeftToeBase -34.488190 -0.000000 0.000000
RightUpLeg -85.003755 -19.467204 -5.937447
RightLeg 29.579600 -0.000000 -0.000000
RightFoot -7.022369 -20.461445 7.562182
RightToeBase 12.746320 -0.000000 -0.000000
632
root -15.083822 32.114079 4.578678 23.382138 -62.781107 -97.148392
Spine -65.888630 -19.509107 -4.230715
Head -94.848858 -13.970505 8.764201
LeftShoulder -14.438111 -10.136642 34.540780
LeftArm 176.104198 -53.194527 -143.107554
LeftForeArm -8.684145 0.000000 23.274780
LeftHand 18.499482 0.000000 96.467560
LeftHandThumb1 -26.253704 0.000000 33.147579
RightShoulder -21.177549 21.199495 -47.007542
RightArm 4.471429 70.658943 -40.691430
RightForeArm 35.758563 0.000000 -11.435174
RightHand 29.919720 0.000000 -66.323011
RightHandThumb1 -24.326973 -0.000000 -32.862282
LeftUpLeg 28.475623 -8.699704 24.005396
LeftLeg 53.745567 -0.000000 -0.000000
LeftFoot 8.478578 22.963273 1.384853
LeftToeBase -36.136481 -0.000000 0.000000
RightUpLeg -86.188096 -20.341984 -5.763987
RightLeg 29.091974 -0.000000 -0.000000
RightFoot -6.276302 -20.164502 7.572413
RightToeBase 13.486173 -0.000000 -0.000000
633
root -14.694769 32.221493 4.571878 23.316313 -63.020890 -97.376357
Spine -66.282051 -19.469943 -4.080067
Head -94.985075 -14.120120 8.792164
LeftShoulder -13.923894 -10.682449 34.078710
LeftArm 178.847996 -55.650967 -143.384378
LeftForeArm -10.073206 0.000000 19.722534
LeftHand 18.271477 -0.000000 97.863287
LeftHandThumb1 -26.253704 0.000000 33.147579
RightShoulder -21.225069 21.411240 -46.635491
RightArm 5.609285 70.227424 -40.399346
RightForeArm 36.129650 0.000000 -12.171571
RightHand 29.668474 -0.000000 -65.664227
RightHandThumb1 -24.326973 -0.000000 -32.862282
LeftUpLeg 27.318497 -8.228991 23.955430
LeftLeg 53.695274 -0.000000 -0.000000
LeftFoot 13.435685 22.870836 1.775277
LeftToeBase -38.016992 -0.000000 0.000000
RightUpLeg -87.239633 -21.194709 -5.594774
RightLeg 28.489634 -0.000000 -0.000000
RightFoot -5.381437 -20.015105 7.004298
RightToeBase 13.622236 -0.000000 -0.000000
